<svg width="18" height="22" viewBox="0 0 18 22" fill="none" xmlns="http://www.w3.org/2000/svg">
<path d="M8.99964 0C4.53403 0 0.900574 3.63346 0.900574 8.09952C0.900574 9.26444 1.13901 10.3767 1.60889 11.4056C3.63388 15.8368 7.51636 20.5151 8.65831 21.8433C8.74387 21.9426 8.8686 21.9998 8.99987 21.9998C9.13113 21.9998 9.25586 21.9426 9.34142 21.8433C10.4829 20.5154 14.3654 15.8372 16.3911 11.4056C16.8612 10.3767 17.0994 9.26444 17.0994 8.09952C17.0989 3.63346 13.4655 0 8.99964 0ZM8.99964 12.3064C6.67993 12.3064 4.7925 10.419 4.7925 8.09929C4.7925 5.77935 6.67993 3.89193 8.99964 3.89193C11.3194 3.89193 13.2068 5.77935 13.2068 8.09929C13.207 10.419 11.3196 12.3064 8.99964 12.3064Z" fill="#BAA99D"/>
</svg>
