<svg width="19" height="20" viewBox="0 0 19 20" fill="none" xmlns="http://www.w3.org/2000/svg">
<g clip-path="url(#clip0_20_554)">
<path d="M15.8984 0.865967H2.80692C1.60359 0.865967 0.625 1.88711 0.625 3.14275V16.8035C0.625 18.0591 1.60359 19.0803 2.80692 19.0803H15.8984C17.1018 19.0803 18.0804 18.0591 18.0804 16.8035V3.14275C18.0804 1.88711 17.1018 0.865967 15.8984 0.865967Z" fill="#161616"/>
<path d="M15.353 9.97297H12.6256V7.69618C12.6256 7.06779 13.1143 7.12699 13.7165 7.12699H14.8075V4.28101H12.6256C10.8179 4.28101 9.3527 5.80987 9.3527 7.69618V9.97297H7.17078V12.819H9.3527V19.0801H12.6256V12.819H14.262L15.353 9.97297Z" fill="white"/>
</g>
<defs>
<clipPath id="clip0_20_554">
<rect x="0.625" y="0.865967" width="17.4554" height="18.2143" rx="8.72768" fill="white"/>
</clipPath>
</defs>
</svg>
