<svg width="20" height="20" viewbox="0 0 20 20" fill="none" xmlns="http://www.w3.org/2000/svg">
<g clip-path="url(#clip0_20_639)">
<path d="M10.0351 15.7406H11.1964C11.1964 15.7406 11.5474 15.7018 11.726 15.5086C11.8911 15.3313 11.8851 14.9985 11.8851 14.9985C11.8851 14.9985 11.862 13.4401 12.5859 13.2105C13.2989 12.9846 14.2148 14.7167 15.1853 15.3835C15.919 15.8876 16.4765 15.7771 16.4765 15.7771L19.0722 15.7406C19.0722 15.7406 20.4302 15.6568 19.7865 14.5891C19.7342 14.5017 19.4111 13.7996 17.8564 12.3566C16.2287 10.8455 16.4473 11.0909 18.4078 8.47815C19.6018 6.88693 20.0792 5.9152 19.9298 5.49979C19.7877 5.10381 18.9095 5.20827 18.9095 5.20827L15.9894 5.22527C15.9894 5.22527 15.7732 5.19612 15.6117 5.29208C15.455 5.38682 15.3542 5.60546 15.3542 5.60546C15.3542 5.60546 14.8914 6.83713 14.2743 7.88417C12.9734 10.0937 12.4523 10.2103 12.2398 10.073C11.7454 9.75354 11.8693 8.78789 11.8693 8.10281C11.8693 5.96136 12.1936 5.06858 11.2364 4.83779C10.9182 4.76127 10.685 4.71025 9.87238 4.70175C8.8302 4.69082 7.94714 4.70539 7.44791 4.94954C7.11509 5.11231 6.8588 5.47549 7.01549 5.49614C7.20862 5.52165 7.6459 5.61396 7.8779 5.92978C8.17792 6.33669 8.16699 7.25255 8.16699 7.25255C8.16699 7.25255 8.33947 9.77298 7.76494 10.0864C7.37017 10.3014 6.82965 9.86286 5.66964 7.85745C5.07567 6.83106 4.62625 5.69535 4.62625 5.69535C4.62625 5.69535 4.54001 5.484 4.38574 5.37103C4.19869 5.23377 3.93632 5.19005 3.93632 5.19005L1.1596 5.20705C1.1596 5.20705 0.74297 5.2192 0.589923 5.40018C0.453881 5.56173 0.578991 5.89455 0.578991 5.89455C0.578991 5.89455 2.75324 10.9804 5.21415 13.5445C7.4722 15.8949 10.0351 15.7406 10.0351 15.7406Z" fill="#000"/>
</g>
<defs>
<clipPath id="clip0_20_639">
<rect width="19.4332" height="19.4332" fill="white" transform="translate(0.526367 0.526367)"/>
</clipPath>
</defs>
</svg>
