<?xml version="1.0" encoding="UTF-8"?>
<svg xmlns="http://www.w3.org/2000/svg" xmlns:xlink="http://www.w3.org/1999/xlink" width="18px" height="19px" viewBox="0 0 18 18" version="1.1">
<g id="surface1">
<path style=" stroke:none;fill-rule:evenodd;fill:rgb(0%,0%,0%);fill-opacity:1;" d="M 16.46875 4.289062 C 15.882812 3.59375 14.804688 3.3125 12.742188 3.3125 L 5.257812 3.3125 C 3.148438 3.3125 2.050781 3.613281 1.46875 4.355469 C 0.898438 5.074219 0.898438 6.140625 0.898438 7.609375 L 0.898438 10.414062 C 0.898438 13.265625 1.574219 14.714844 5.257812 14.714844 L 12.742188 14.714844 C 14.53125 14.714844 15.519531 14.460938 16.164062 13.847656 C 16.820312 13.21875 17.101562 12.191406 17.101562 10.414062 L 17.101562 7.609375 C 17.101562 6.058594 17.054688 4.988281 16.46875 4.289062 Z M 11.300781 9.398438 L 7.902344 11.175781 C 7.824219 11.214844 7.742188 11.234375 7.660156 11.234375 C 7.566406 11.234375 7.472656 11.210938 7.390625 11.160156 C 7.234375 11.066406 7.136719 10.894531 7.136719 10.710938 L 7.136719 7.171875 C 7.136719 6.988281 7.230469 6.820312 7.386719 6.726562 C 7.542969 6.628906 7.738281 6.625 7.902344 6.707031 L 11.300781 8.472656 C 11.472656 8.5625 11.582031 8.742188 11.582031 8.9375 C 11.582031 9.128906 11.472656 9.308594 11.300781 9.398438 Z M 11.300781 9.398438 "/>
</g>
</svg>
