<svg width="21" height="20" viewbox="0 0 21 20" fill="none" xmlns="http://www.w3.org/2000/svg">
<g clip-path="url(#clip0_20_635)">
<path d="M14.2469 0.526367H6.95947C3.60603 0.526367 0.886597 3.2458 0.886597 6.59924V13.8867C0.886597 17.2401 3.60603 19.9596 6.95947 19.9596H14.2469C17.6004 19.9596 20.3198 17.2401 20.3198 13.8867V6.59924C20.3198 3.2458 17.6004 0.526367 14.2469 0.526367ZM18.4979 13.8867C18.4979 16.2308 16.5911 18.1377 14.2469 18.1377H6.95947C4.61534 18.1377 2.70846 16.2308 2.70846 13.8867V6.59924C2.70846 4.25511 4.61534 2.34823 6.95947 2.34823H14.2469C16.5911 2.34823 18.4979 4.25511 18.4979 6.59924V13.8867Z" fill="#161616"/>
<path d="M10.6032 5.38477C7.92018 5.38477 5.74487 7.56007 5.74487 10.2431C5.74487 12.9261 7.92018 15.1014 10.6032 15.1014C13.2862 15.1014 15.4615 12.9261 15.4615 10.2431C15.4615 7.56007 13.2862 5.38477 10.6032 5.38477ZM10.6032 13.2795C8.92949 13.2795 7.56674 11.9167 7.56674 10.2431C7.56674 8.56817 8.92949 7.20663 10.6032 7.20663C12.2769 7.20663 13.6396 8.56817 13.6396 10.2431C13.6396 11.9167 12.2769 13.2795 10.6032 13.2795Z" fill="#161616"/>
<path d="M15.826 5.66778C16.1835 5.66778 16.4733 5.37794 16.4733 5.02041C16.4733 4.66288 16.1835 4.37305 15.826 4.37305C15.4684 4.37305 15.1786 4.66288 15.1786 5.02041C15.1786 5.37794 15.4684 5.66778 15.826 5.66778Z" fill="#161616"/>
</g>
<defs>
<clipPath id="clip0_20_635">
<rect width="19.4332" height="19.4332" fill="white" transform="translate(0.886597 0.526367)"/>
</clipPath>
</defs>
</svg>
