<svg width="19" height="20" viewBox="0 0 19 20" fill="none" xmlns="http://www.w3.org/2000/svg">
<g clip-path="url(#clip0_20_544)">
<path d="M13.3081 0.865967H6.47773C3.33463 0.865967 0.785767 3.41483 0.785767 6.55793V13.3883C0.785767 16.5314 3.33463 19.0803 6.47773 19.0803H13.3081C16.4512 19.0803 19.0001 16.5314 19.0001 13.3883V6.55793C19.0001 3.41483 16.4512 0.865967 13.3081 0.865967ZM17.2925 13.3883C17.2925 15.5854 15.5052 17.3727 13.3081 17.3727H6.47773C4.28063 17.3727 2.49336 15.5854 2.49336 13.3883V6.55793C2.49336 4.36083 4.28063 2.57356 6.47773 2.57356H13.3081C15.5052 2.57356 17.2925 4.36083 17.2925 6.55793V13.3883Z" fill="#161616"/>
<path d="M9.89293 5.41943C7.37822 5.41943 5.33936 7.45829 5.33936 9.973C5.33936 12.4877 7.37822 14.5266 9.89293 14.5266C12.4076 14.5266 14.4465 12.4877 14.4465 9.973C14.4465 7.45829 12.4076 5.41943 9.89293 5.41943ZM9.89293 12.819C8.32422 12.819 7.04694 11.5417 7.04694 9.973C7.04694 8.40316 8.32422 7.12702 9.89293 7.12702C11.4616 7.12702 12.7389 8.40316 12.7389 9.973C12.7389 11.5417 11.4616 12.819 9.89293 12.819Z" fill="#161616"/>
<path d="M14.7882 5.68471C15.1233 5.68471 15.3949 5.41306 15.3949 5.07795C15.3949 4.74285 15.1233 4.47119 14.7882 4.47119C14.4531 4.47119 14.1814 4.74285 14.1814 5.07795C14.1814 5.41306 14.4531 5.68471 14.7882 5.68471Z" fill="#161616"/>
</g>
<defs>
<clipPath id="clip0_20_544">
<rect width="18.2143" height="18.2143" fill="white" transform="translate(0.785767 0.865967)"/>
</clipPath>
</defs>
</svg>
